<mxfile host="Electron" agent="Mozilla/5.0 (Windows NT 10.0; Win64; x64) AppleWebKit/537.36 (KHTML, like Gecko) draw.io/27.0.2 Chrome/134.0.6998.205 Electron/35.3.0 Safari/537.36" version="27.0.2" pages="3">
  <diagram name="Página-1" id="bkcNCFuZh3nzWd275Wma">
    <mxGraphModel dx="856" dy="1682" grid="1" gridSize="10" guides="1" tooltips="1" connect="1" arrows="1" fold="1" page="1" pageScale="1" pageWidth="827" pageHeight="1169" math="0" shadow="0">
      <root>
        <mxCell id="0" />
        <mxCell id="1" parent="0" />
        <mxCell id="55U7T44SHWVihHTXmbw4-5" value="" style="whiteSpace=wrap;html=1;fillColor=default;" parent="1" vertex="1">
          <mxGeometry x="160" y="70" width="1340" height="670" as="geometry" />
        </mxCell>
        <mxCell id="kDnsUJRPrxgdrEXKaM1p-23" value="" style="whiteSpace=wrap;html=1;fillColor=#001F62;fontColor=#ffffff;strokeColor=#001DBC;" parent="1" vertex="1">
          <mxGeometry x="780" y="130" width="310" height="120" as="geometry" />
        </mxCell>
        <mxCell id="ELgzYbz5t30qQWorCvFD-22" value="" style="edgeStyle=orthogonalEdgeStyle;rounded=0;orthogonalLoop=1;jettySize=auto;html=1;" parent="1" source="55U7T44SHWVihHTXmbw4-6" target="55U7T44SHWVihHTXmbw4-7" edge="1">
          <mxGeometry relative="1" as="geometry" />
        </mxCell>
        <mxCell id="kDnsUJRPrxgdrEXKaM1p-8" value="" style="rounded=0;orthogonalLoop=1;jettySize=auto;html=1;" parent="1" source="55U7T44SHWVihHTXmbw4-6" target="kDnsUJRPrxgdrEXKaM1p-7" edge="1">
          <mxGeometry relative="1" as="geometry" />
        </mxCell>
        <mxCell id="kDnsUJRPrxgdrEXKaM1p-11" value="" style="edgeStyle=orthogonalEdgeStyle;rounded=0;orthogonalLoop=1;jettySize=auto;html=1;" parent="1" source="55U7T44SHWVihHTXmbw4-6" target="kDnsUJRPrxgdrEXKaM1p-10" edge="1">
          <mxGeometry relative="1" as="geometry" />
        </mxCell>
        <mxCell id="55U7T44SHWVihHTXmbw4-6" value="VERIFICACIÓN DE SEGUNDO FACTOR" style="ellipse;whiteSpace=wrap;html=1;" parent="1" vertex="1">
          <mxGeometry x="414" y="260" width="120" height="80" as="geometry" />
        </mxCell>
        <mxCell id="kDnsUJRPrxgdrEXKaM1p-27" style="rounded=0;orthogonalLoop=1;jettySize=auto;html=1;" parent="1" source="55U7T44SHWVihHTXmbw4-7" target="ELgzYbz5t30qQWorCvFD-7" edge="1">
          <mxGeometry relative="1" as="geometry" />
        </mxCell>
        <mxCell id="55U7T44SHWVihHTXmbw4-7" value="VERIFICAR POR CORREO" style="ellipse;whiteSpace=wrap;html=1;" parent="1" vertex="1">
          <mxGeometry x="620" y="260" width="120" height="80" as="geometry" />
        </mxCell>
        <mxCell id="ELgzYbz5t30qQWorCvFD-12" value="" style="rounded=0;orthogonalLoop=1;jettySize=auto;html=1;" parent="1" source="55U7T44SHWVihHTXmbw4-20" target="ELgzYbz5t30qQWorCvFD-1" edge="1">
          <mxGeometry relative="1" as="geometry">
            <mxPoint x="370" y="170" as="sourcePoint" />
          </mxGeometry>
        </mxCell>
        <mxCell id="55U7T44SHWVihHTXmbw4-10" value="SISTEMA" style="text;html=1;align=center;verticalAlign=middle;whiteSpace=wrap;rounded=0;" parent="1" vertex="1">
          <mxGeometry x="180" y="80" width="60" height="30" as="geometry" />
        </mxCell>
        <mxCell id="ELgzYbz5t30qQWorCvFD-17" style="rounded=0;orthogonalLoop=1;jettySize=auto;html=1;" parent="1" source="55U7T44SHWVihHTXmbw4-20" target="55U7T44SHWVihHTXmbw4-6" edge="1">
          <mxGeometry relative="1" as="geometry" />
        </mxCell>
        <mxCell id="55U7T44SHWVihHTXmbw4-20" value="USUARIO&lt;div&gt;&lt;br&gt;&lt;/div&gt;&lt;div&gt;&lt;br&gt;&lt;/div&gt;" style="shape=umlActor;verticalLabelPosition=bottom;verticalAlign=top;html=1;outlineConnect=0;" parent="1" vertex="1">
          <mxGeometry x="100" y="270" width="30" height="60" as="geometry" />
        </mxCell>
        <mxCell id="OUFbGunnK5T9rDzc7TgG-1" value="&lt;font style=&quot;font-size: 19px;&quot;&gt;Diagrama de Casos de Uso&lt;/font&gt;" style="text;html=1;align=center;verticalAlign=middle;resizable=0;points=[];autosize=1;strokeColor=none;fillColor=none;" parent="1" vertex="1">
          <mxGeometry x="160" y="15" width="260" height="40" as="geometry" />
        </mxCell>
        <mxCell id="ELgzYbz5t30qQWorCvFD-1" value="INGRESAR CREDENCIALES (LOGIN)" style="ellipse;whiteSpace=wrap;html=1;" parent="1" vertex="1">
          <mxGeometry x="250" y="80" width="120" height="80" as="geometry" />
        </mxCell>
        <mxCell id="kDnsUJRPrxgdrEXKaM1p-2" value="&amp;lt;include&amp;gt;" style="edgeStyle=orthogonalEdgeStyle;rounded=0;orthogonalLoop=1;jettySize=auto;html=1;dashed=1;" parent="1" source="ELgzYbz5t30qQWorCvFD-2" target="55U7T44SHWVihHTXmbw4-6" edge="1">
          <mxGeometry relative="1" as="geometry" />
        </mxCell>
        <mxCell id="ELgzYbz5t30qQWorCvFD-2" value="VALIDAR CREDENCIALES" style="ellipse;whiteSpace=wrap;html=1;" parent="1" vertex="1">
          <mxGeometry x="414" y="120" width="120" height="80" as="geometry" />
        </mxCell>
        <mxCell id="ELgzYbz5t30qQWorCvFD-18" value="include" style="rounded=0;orthogonalLoop=1;jettySize=auto;html=1;dashed=1;startArrow=block;startFill=1;endArrow=none;" parent="1" source="ELgzYbz5t30qQWorCvFD-4" target="ELgzYbz5t30qQWorCvFD-7" edge="1">
          <mxGeometry relative="1" as="geometry">
            <mxPoint x="1111.0276687839487" y="192.62845859799336" as="targetPoint" />
          </mxGeometry>
        </mxCell>
        <mxCell id="ELgzYbz5t30qQWorCvFD-4" value="ENVIAR CÓDIGO" style="ellipse;whiteSpace=wrap;html=1;" parent="1" vertex="1">
          <mxGeometry x="950" y="140" width="120" height="80" as="geometry" />
        </mxCell>
        <mxCell id="ELgzYbz5t30qQWorCvFD-11" style="edgeStyle=orthogonalEdgeStyle;rounded=0;orthogonalLoop=1;jettySize=auto;html=1;" parent="1" source="ELgzYbz5t30qQWorCvFD-5" target="ELgzYbz5t30qQWorCvFD-8" edge="1">
          <mxGeometry relative="1" as="geometry" />
        </mxCell>
        <mxCell id="ELgzYbz5t30qQWorCvFD-5" value="VALIDAR CÓDIGO 2FA" style="ellipse;whiteSpace=wrap;html=1;" parent="1" vertex="1">
          <mxGeometry x="1160" y="300" width="120" height="80" as="geometry" />
        </mxCell>
        <mxCell id="kDnsUJRPrxgdrEXKaM1p-6" style="edgeStyle=orthogonalEdgeStyle;rounded=0;orthogonalLoop=1;jettySize=auto;html=1;" parent="1" source="ELgzYbz5t30qQWorCvFD-7" target="ELgzYbz5t30qQWorCvFD-5" edge="1">
          <mxGeometry relative="1" as="geometry" />
        </mxCell>
        <mxCell id="ELgzYbz5t30qQWorCvFD-7" value="INGRESAR CÓDIGO RECIBIDO" style="ellipse;whiteSpace=wrap;html=1;" parent="1" vertex="1">
          <mxGeometry x="990" y="300" width="120" height="80" as="geometry" />
        </mxCell>
        <mxCell id="ELgzYbz5t30qQWorCvFD-8" value="ACCEDER AL SISTEMA" style="ellipse;whiteSpace=wrap;html=1;" parent="1" vertex="1">
          <mxGeometry x="1330" y="300" width="120" height="80" as="geometry" />
        </mxCell>
        <mxCell id="kDnsUJRPrxgdrEXKaM1p-20" style="edgeStyle=orthogonalEdgeStyle;rounded=0;orthogonalLoop=1;jettySize=auto;html=1;" parent="1" source="ELgzYbz5t30qQWorCvFD-3" target="ELgzYbz5t30qQWorCvFD-4" edge="1">
          <mxGeometry relative="1" as="geometry" />
        </mxCell>
        <mxCell id="ELgzYbz5t30qQWorCvFD-3" value="GENERAR CÓDIGO 2FA" style="ellipse;whiteSpace=wrap;html=1;" parent="1" vertex="1">
          <mxGeometry x="800" y="140" width="120" height="80" as="geometry" />
        </mxCell>
        <mxCell id="kDnsUJRPrxgdrEXKaM1p-28" style="rounded=0;orthogonalLoop=1;jettySize=auto;html=1;" parent="1" source="kDnsUJRPrxgdrEXKaM1p-7" target="ELgzYbz5t30qQWorCvFD-7" edge="1">
          <mxGeometry relative="1" as="geometry" />
        </mxCell>
        <mxCell id="kDnsUJRPrxgdrEXKaM1p-7" value="VERIFICAR POR SMS" style="ellipse;whiteSpace=wrap;html=1;" parent="1" vertex="1">
          <mxGeometry x="620" y="380" width="120" height="80" as="geometry" />
        </mxCell>
        <mxCell id="a185UjHr5Wbor6EuOmG7-4" style="edgeStyle=orthogonalEdgeStyle;rounded=0;orthogonalLoop=1;jettySize=auto;html=1;" parent="1" source="kDnsUJRPrxgdrEXKaM1p-10" target="a185UjHr5Wbor6EuOmG7-2" edge="1">
          <mxGeometry relative="1" as="geometry" />
        </mxCell>
        <mxCell id="a185UjHr5Wbor6EuOmG7-5" style="edgeStyle=orthogonalEdgeStyle;rounded=0;orthogonalLoop=1;jettySize=auto;html=1;" parent="1" source="kDnsUJRPrxgdrEXKaM1p-10" target="a185UjHr5Wbor6EuOmG7-3" edge="1">
          <mxGeometry relative="1" as="geometry">
            <Array as="points">
              <mxPoint x="557" y="580" />
              <mxPoint x="557" y="640" />
            </Array>
          </mxGeometry>
        </mxCell>
        <mxCell id="kDnsUJRPrxgdrEXKaM1p-10" value="VERIFICAR POR TOKEN" style="ellipse;whiteSpace=wrap;html=1;" parent="1" vertex="1">
          <mxGeometry x="414" y="530" width="120" height="80" as="geometry" />
        </mxCell>
        <mxCell id="kDnsUJRPrxgdrEXKaM1p-19" style="edgeStyle=orthogonalEdgeStyle;rounded=0;orthogonalLoop=1;jettySize=auto;html=1;" parent="1" source="kDnsUJRPrxgdrEXKaM1p-15" target="kDnsUJRPrxgdrEXKaM1p-23" edge="1">
          <mxGeometry relative="1" as="geometry" />
        </mxCell>
        <mxCell id="kDnsUJRPrxgdrEXKaM1p-15" value="EMAIL" style="shape=umlActor;verticalLabelPosition=bottom;verticalAlign=top;html=1;outlineConnect=0;" parent="1" vertex="1">
          <mxGeometry x="920" y="-30" width="30" height="60" as="geometry" />
        </mxCell>
        <mxCell id="kDnsUJRPrxgdrEXKaM1p-26" style="edgeStyle=orthogonalEdgeStyle;rounded=0;orthogonalLoop=1;jettySize=auto;html=1;" parent="1" source="kDnsUJRPrxgdrEXKaM1p-22" target="kDnsUJRPrxgdrEXKaM1p-23" edge="1">
          <mxGeometry relative="1" as="geometry">
            <Array as="points">
              <mxPoint x="980" y="10" />
            </Array>
          </mxGeometry>
        </mxCell>
        <mxCell id="kDnsUJRPrxgdrEXKaM1p-22" value="SERVICIO DE TELEFONÍA" style="shape=umlActor;verticalLabelPosition=bottom;verticalAlign=top;html=1;outlineConnect=0;" parent="1" vertex="1">
          <mxGeometry x="1100" y="-20" width="30" height="60" as="geometry" />
        </mxCell>
        <mxCell id="kDnsUJRPrxgdrEXKaM1p-30" style="edgeStyle=orthogonalEdgeStyle;rounded=0;orthogonalLoop=1;jettySize=auto;html=1;" parent="1" source="kDnsUJRPrxgdrEXKaM1p-29" target="ELgzYbz5t30qQWorCvFD-2" edge="1">
          <mxGeometry relative="1" as="geometry" />
        </mxCell>
        <mxCell id="kDnsUJRPrxgdrEXKaM1p-29" value="AUTENTICADOR" style="shape=umlActor;verticalLabelPosition=bottom;verticalAlign=top;html=1;outlineConnect=0;" parent="1" vertex="1">
          <mxGeometry x="490" y="-20" width="30" height="60" as="geometry" />
        </mxCell>
        <mxCell id="e8HvIfPg88PnvEtI7GWi-3" value="REGISTRARSE" style="ellipse;whiteSpace=wrap;html=1;" parent="1" vertex="1">
          <mxGeometry x="230" y="320" width="120" height="80" as="geometry" />
        </mxCell>
        <mxCell id="e8HvIfPg88PnvEtI7GWi-5" value="CONTRASEÑA 12 CARACTERES&lt;div&gt;ESPECIALES&lt;/div&gt;" style="ellipse;whiteSpace=wrap;html=1;" parent="1" vertex="1">
          <mxGeometry x="230" y="420" width="120" height="80" as="geometry" />
        </mxCell>
        <mxCell id="e8HvIfPg88PnvEtI7GWi-6" value="HASHEADO&lt;div&gt;&amp;nbsp;CONTRA FUERZA BRUTA Y ATAQUES DICCIONARIO&lt;/div&gt;" style="ellipse;whiteSpace=wrap;html=1;" parent="1" vertex="1">
          <mxGeometry x="230" y="520" width="120" height="80" as="geometry" />
        </mxCell>
        <mxCell id="e8HvIfPg88PnvEtI7GWi-7" value="PROTECCION CONTRA REUTILIZACION DE CODIGOS" style="ellipse;whiteSpace=wrap;html=1;" parent="1" vertex="1">
          <mxGeometry x="230" y="630" width="120" height="80" as="geometry" />
        </mxCell>
        <mxCell id="e8HvIfPg88PnvEtI7GWi-8" value="CAMBIO DE CONTRASEÑA CADA SEIS MESES" style="ellipse;whiteSpace=wrap;html=1;" parent="1" vertex="1">
          <mxGeometry x="250" y="200" width="120" height="80" as="geometry" />
        </mxCell>
        <mxCell id="e8HvIfPg88PnvEtI7GWi-10" value="" style="endArrow=classic;html=1;rounded=0;entryX=0.5;entryY=0;entryDx=0;entryDy=0;" parent="1" target="e8HvIfPg88PnvEtI7GWi-5" edge="1">
          <mxGeometry width="50" height="50" relative="1" as="geometry">
            <mxPoint x="290" y="400" as="sourcePoint" />
            <mxPoint x="350" y="400" as="targetPoint" />
          </mxGeometry>
        </mxCell>
        <mxCell id="e8HvIfPg88PnvEtI7GWi-11" value="" style="endArrow=classic;html=1;rounded=0;exitX=0.5;exitY=1;exitDx=0;exitDy=0;entryX=0.5;entryY=0;entryDx=0;entryDy=0;" parent="1" source="e8HvIfPg88PnvEtI7GWi-5" target="e8HvIfPg88PnvEtI7GWi-6" edge="1">
          <mxGeometry width="50" height="50" relative="1" as="geometry">
            <mxPoint x="300" y="520" as="sourcePoint" />
            <mxPoint x="350" y="470" as="targetPoint" />
          </mxGeometry>
        </mxCell>
        <mxCell id="e8HvIfPg88PnvEtI7GWi-12" value="" style="endArrow=classic;html=1;rounded=0;exitX=0.097;exitY=0.791;exitDx=0;exitDy=0;exitPerimeter=0;entryX=0.5;entryY=0;entryDx=0;entryDy=0;" parent="1" source="55U7T44SHWVihHTXmbw4-5" target="e8HvIfPg88PnvEtI7GWi-7" edge="1">
          <mxGeometry width="50" height="50" relative="1" as="geometry">
            <mxPoint x="350" y="640" as="sourcePoint" />
            <mxPoint x="400" y="590" as="targetPoint" />
          </mxGeometry>
        </mxCell>
        <mxCell id="e8HvIfPg88PnvEtI7GWi-13" value="&amp;lt;include&amp;gt;" style="endArrow=classic;html=1;rounded=0;exitX=0.5;exitY=1;exitDx=0;exitDy=0;entryX=0.5;entryY=0;entryDx=0;entryDy=0;startFill=0;dashed=1;endFill=1;" parent="1" source="ELgzYbz5t30qQWorCvFD-1" target="e8HvIfPg88PnvEtI7GWi-8" edge="1">
          <mxGeometry width="50" height="50" relative="1" as="geometry">
            <mxPoint x="440" y="460" as="sourcePoint" />
            <mxPoint x="490" y="410" as="targetPoint" />
          </mxGeometry>
        </mxCell>
        <mxCell id="e8HvIfPg88PnvEtI7GWi-14" value="" style="endArrow=classic;html=1;rounded=0;entryX=0.023;entryY=0.285;entryDx=0;entryDy=0;entryPerimeter=0;" parent="1" target="e8HvIfPg88PnvEtI7GWi-3" edge="1">
          <mxGeometry width="50" height="50" relative="1" as="geometry">
            <mxPoint x="130" y="320" as="sourcePoint" />
            <mxPoint x="200" y="330" as="targetPoint" />
            <Array as="points">
              <mxPoint x="230" y="340" />
            </Array>
          </mxGeometry>
        </mxCell>
        <mxCell id="a185UjHr5Wbor6EuOmG7-2" value="TIPO: GENERADOR DE CLAVE" style="ellipse;whiteSpace=wrap;html=1;" parent="1" vertex="1">
          <mxGeometry x="580" y="490" width="120" height="80" as="geometry" />
        </mxCell>
        <mxCell id="a185UjHr5Wbor6EuOmG7-9" style="edgeStyle=orthogonalEdgeStyle;rounded=0;orthogonalLoop=1;jettySize=auto;html=1;" parent="1" source="a185UjHr5Wbor6EuOmG7-3" target="a185UjHr5Wbor6EuOmG7-8" edge="1">
          <mxGeometry relative="1" as="geometry" />
        </mxCell>
        <mxCell id="a185UjHr5Wbor6EuOmG7-3" value="TIPO: HUELLA DACTILAR" style="ellipse;whiteSpace=wrap;html=1;" parent="1" vertex="1">
          <mxGeometry x="580" y="600" width="120" height="80" as="geometry" />
        </mxCell>
        <mxCell id="a185UjHr5Wbor6EuOmG7-10" style="edgeStyle=orthogonalEdgeStyle;rounded=0;orthogonalLoop=1;jettySize=auto;html=1;" parent="1" source="a185UjHr5Wbor6EuOmG7-6" target="a185UjHr5Wbor6EuOmG7-15" edge="1">
          <mxGeometry relative="1" as="geometry" />
        </mxCell>
        <mxCell id="a185UjHr5Wbor6EuOmG7-6" value="DISPOSITIVO GENERADOR DE CLAVES" style="shape=umlActor;verticalLabelPosition=bottom;verticalAlign=top;html=1;outlineConnect=0;" parent="1" vertex="1">
          <mxGeometry x="770" y="770" width="30" height="60" as="geometry" />
        </mxCell>
        <mxCell id="a185UjHr5Wbor6EuOmG7-12" style="edgeStyle=orthogonalEdgeStyle;rounded=0;orthogonalLoop=1;jettySize=auto;html=1;entryX=0;entryY=0.5;entryDx=0;entryDy=0;" parent="1" source="a185UjHr5Wbor6EuOmG7-7" target="a185UjHr5Wbor6EuOmG7-11" edge="1">
          <mxGeometry relative="1" as="geometry" />
        </mxCell>
        <mxCell id="a185UjHr5Wbor6EuOmG7-7" value="PROCESAR HUELLA DACTILAR" style="ellipse;whiteSpace=wrap;html=1;" parent="1" vertex="1">
          <mxGeometry x="1035" y="600" width="120" height="80" as="geometry" />
        </mxCell>
        <mxCell id="a185UjHr5Wbor6EuOmG7-26" value="&amp;lt;include&amp;gt;" style="edgeStyle=orthogonalEdgeStyle;rounded=0;orthogonalLoop=1;jettySize=auto;html=1;dashed=1;startArrow=classic;startFill=0;endArrow=none;" parent="1" source="a185UjHr5Wbor6EuOmG7-8" target="a185UjHr5Wbor6EuOmG7-7" edge="1">
          <mxGeometry relative="1" as="geometry" />
        </mxCell>
        <mxCell id="a185UjHr5Wbor6EuOmG7-8" value="INSERTAR HUELLA DACTILAR" style="ellipse;whiteSpace=wrap;html=1;" parent="1" vertex="1">
          <mxGeometry x="740" y="600" width="120" height="80" as="geometry" />
        </mxCell>
        <mxCell id="a185UjHr5Wbor6EuOmG7-14" style="edgeStyle=orthogonalEdgeStyle;rounded=0;orthogonalLoop=1;jettySize=auto;html=1;" parent="1" source="a185UjHr5Wbor6EuOmG7-11" target="ELgzYbz5t30qQWorCvFD-8" edge="1">
          <mxGeometry relative="1" as="geometry">
            <Array as="points">
              <mxPoint x="1390" y="640" />
            </Array>
          </mxGeometry>
        </mxCell>
        <mxCell id="a185UjHr5Wbor6EuOmG7-11" value="VALIDAR HUELLA DACTILAR" style="ellipse;whiteSpace=wrap;html=1;" parent="1" vertex="1">
          <mxGeometry x="1215" y="600" width="120" height="80" as="geometry" />
        </mxCell>
        <mxCell id="a185UjHr5Wbor6EuOmG7-21" value="&amp;lt;include&amp;gt;" style="edgeStyle=orthogonalEdgeStyle;rounded=0;orthogonalLoop=1;jettySize=auto;html=1;dashed=1;startArrow=classic;startFill=1;endArrow=none;" parent="1" source="a185UjHr5Wbor6EuOmG7-15" target="a185UjHr5Wbor6EuOmG7-19" edge="1">
          <mxGeometry relative="1" as="geometry" />
        </mxCell>
        <mxCell id="a185UjHr5Wbor6EuOmG7-15" value="GENERAR CLAVE" style="ellipse;whiteSpace=wrap;html=1;" parent="1" vertex="1">
          <mxGeometry x="827" y="500" width="120" height="80" as="geometry" />
        </mxCell>
        <mxCell id="a185UjHr5Wbor6EuOmG7-17" style="edgeStyle=orthogonalEdgeStyle;rounded=0;orthogonalLoop=1;jettySize=auto;html=1;" parent="1" source="a185UjHr5Wbor6EuOmG7-16" target="a185UjHr5Wbor6EuOmG7-7" edge="1">
          <mxGeometry relative="1" as="geometry" />
        </mxCell>
        <mxCell id="a185UjHr5Wbor6EuOmG7-16" value="DISPOSITIVO CON HUELLA DACTILAR" style="shape=umlActor;verticalLabelPosition=bottom;verticalAlign=top;html=1;outlineConnect=0;" parent="1" vertex="1">
          <mxGeometry x="1080" y="770" width="30" height="60" as="geometry" />
        </mxCell>
        <mxCell id="a185UjHr5Wbor6EuOmG7-23" style="edgeStyle=orthogonalEdgeStyle;rounded=0;orthogonalLoop=1;jettySize=auto;html=1;" parent="1" source="a185UjHr5Wbor6EuOmG7-19" target="a185UjHr5Wbor6EuOmG7-20" edge="1">
          <mxGeometry relative="1" as="geometry" />
        </mxCell>
        <mxCell id="a185UjHr5Wbor6EuOmG7-19" value="INGRESAR CÓDIGO RECIBIDO" style="ellipse;whiteSpace=wrap;html=1;" parent="1" vertex="1">
          <mxGeometry x="1035" y="500" width="120" height="80" as="geometry" />
        </mxCell>
        <mxCell id="a185UjHr5Wbor6EuOmG7-20" value="VALIDAR CÓDIGO 2FA" style="ellipse;whiteSpace=wrap;html=1;" parent="1" vertex="1">
          <mxGeometry x="1210" y="500" width="120" height="80" as="geometry" />
        </mxCell>
        <mxCell id="a185UjHr5Wbor6EuOmG7-24" style="edgeStyle=orthogonalEdgeStyle;rounded=0;orthogonalLoop=1;jettySize=auto;html=1;entryX=0.317;entryY=0.917;entryDx=0;entryDy=0;entryPerimeter=0;" parent="1" source="a185UjHr5Wbor6EuOmG7-20" target="ELgzYbz5t30qQWorCvFD-8" edge="1">
          <mxGeometry relative="1" as="geometry" />
        </mxCell>
      </root>
    </mxGraphModel>
  </diagram>
  <diagram id="3XpqEXoGFujijByaQAJS" name="Página-2">
    <mxGraphModel dx="907" dy="1726" grid="1" gridSize="10" guides="1" tooltips="1" connect="1" arrows="1" fold="1" page="1" pageScale="1" pageWidth="827" pageHeight="1169" math="0" shadow="0">
      <root>
        <mxCell id="0" />
        <mxCell id="1" parent="0" />
        <mxCell id="KM89pwE54j6eWPWr3_YM-1" value="" style="ellipse;whiteSpace=wrap;html=1;aspect=fixed;" parent="1" vertex="1">
          <mxGeometry x="90" y="40" width="80" height="80" as="geometry" />
        </mxCell>
        <mxCell id="KM89pwE54j6eWPWr3_YM-2" value="LOGIN" style="text;html=1;align=center;verticalAlign=middle;whiteSpace=wrap;rounded=0;" parent="1" vertex="1">
          <mxGeometry x="240" y="20" width="60" height="30" as="geometry" />
        </mxCell>
        <mxCell id="KM89pwE54j6eWPWr3_YM-5" value="" style="endArrow=none;html=1;rounded=0;entryX=0.5;entryY=1;entryDx=0;entryDy=0;" parent="1" source="vRh6OYR6chhi0RHXxBmz-3" target="KM89pwE54j6eWPWr3_YM-1" edge="1">
          <mxGeometry width="50" height="50" relative="1" as="geometry">
            <mxPoint x="130" y="169.99999999999977" as="sourcePoint" />
            <mxPoint x="121" y="120" as="targetPoint" />
          </mxGeometry>
        </mxCell>
        <mxCell id="RthCbK91_F8tJ_3ahLFB-1" style="edgeStyle=orthogonalEdgeStyle;rounded=0;orthogonalLoop=1;jettySize=auto;html=1;endArrow=none;startFill=0;" parent="1" source="KM89pwE54j6eWPWr3_YM-6" target="vRh6OYR6chhi0RHXxBmz-3" edge="1">
          <mxGeometry relative="1" as="geometry">
            <mxPoint x="130" y="229.99999999999977" as="targetPoint" />
          </mxGeometry>
        </mxCell>
        <mxCell id="KM89pwE54j6eWPWr3_YM-6" value="" style="rhombus;whiteSpace=wrap;html=1;" parent="1" vertex="1">
          <mxGeometry x="90" y="270" width="80" height="80" as="geometry" />
        </mxCell>
        <mxCell id="KM89pwE54j6eWPWr3_YM-9" value="VALIDA&lt;div&gt;CREDENCIALES&lt;/div&gt;" style="rounded=1;whiteSpace=wrap;html=1;" parent="1" vertex="1">
          <mxGeometry x="70" y="400" width="120" height="60" as="geometry" />
        </mxCell>
        <mxCell id="KM89pwE54j6eWPWr3_YM-10" value="" style="endArrow=none;html=1;rounded=0;entryX=0.5;entryY=1;entryDx=0;entryDy=0;exitX=0.5;exitY=0;exitDx=0;exitDy=0;" parent="1" source="KM89pwE54j6eWPWr3_YM-9" target="KM89pwE54j6eWPWr3_YM-6" edge="1">
          <mxGeometry width="50" height="50" relative="1" as="geometry">
            <mxPoint x="120" y="440" as="sourcePoint" />
            <mxPoint x="120" y="390" as="targetPoint" />
          </mxGeometry>
        </mxCell>
        <mxCell id="KM89pwE54j6eWPWr3_YM-13" value="" style="endArrow=none;html=1;rounded=0;exitX=1;exitY=0.5;exitDx=0;exitDy=0;edgeStyle=orthogonalEdgeStyle;" parent="1" source="KM89pwE54j6eWPWr3_YM-6" edge="1">
          <mxGeometry width="50" height="50" relative="1" as="geometry">
            <mxPoint x="220" y="340" as="sourcePoint" />
            <mxPoint x="220" y="200" as="targetPoint" />
          </mxGeometry>
        </mxCell>
        <mxCell id="KM89pwE54j6eWPWr3_YM-14" value="" style="endArrow=none;html=1;rounded=0;startArrow=block;startFill=1;" parent="1" source="vRh6OYR6chhi0RHXxBmz-3" edge="1">
          <mxGeometry width="50" height="50" relative="1" as="geometry">
            <mxPoint x="190" y="199.99999999999977" as="sourcePoint" />
            <mxPoint x="220" y="200" as="targetPoint" />
          </mxGeometry>
        </mxCell>
        <mxCell id="KM89pwE54j6eWPWr3_YM-27" value="NO" style="edgeStyle=orthogonalEdgeStyle;rounded=0;orthogonalLoop=1;jettySize=auto;html=1;entryX=0.5;entryY=0;entryDx=0;entryDy=0;endArrow=none;startFill=0;" parent="1" source="KM89pwE54j6eWPWr3_YM-17" target="KM89pwE54j6eWPWr3_YM-26" edge="1">
          <mxGeometry x="-0.3749" relative="1" as="geometry">
            <mxPoint as="offset" />
          </mxGeometry>
        </mxCell>
        <mxCell id="KM89pwE54j6eWPWr3_YM-32" value="" style="edgeStyle=orthogonalEdgeStyle;rounded=0;orthogonalLoop=1;jettySize=auto;html=1;endArrow=block;endFill=1;" parent="1" source="KM89pwE54j6eWPWr3_YM-17" target="KM89pwE54j6eWPWr3_YM-19" edge="1">
          <mxGeometry relative="1" as="geometry" />
        </mxCell>
        <mxCell id="KM89pwE54j6eWPWr3_YM-17" value="" style="rhombus;whiteSpace=wrap;html=1;" parent="1" vertex="1">
          <mxGeometry x="370" y="160" width="80" height="80" as="geometry" />
        </mxCell>
        <mxCell id="KM89pwE54j6eWPWr3_YM-19" value="BLOQUEO" style="ellipse;whiteSpace=wrap;html=1;" parent="1" vertex="1">
          <mxGeometry x="350" y="-30" width="120" height="80" as="geometry" />
        </mxCell>
        <mxCell id="RthCbK91_F8tJ_3ahLFB-2" value="SI" style="edgeStyle=orthogonalEdgeStyle;rounded=0;orthogonalLoop=1;jettySize=auto;html=1;" parent="1" source="KM89pwE54j6eWPWr3_YM-20" target="KM89pwE54j6eWPWr3_YM-23" edge="1">
          <mxGeometry relative="1" as="geometry" />
        </mxCell>
        <mxCell id="GqbfyCoOcC2KNz3jLCVC-5" value="NO" style="edgeStyle=orthogonalEdgeStyle;rounded=0;orthogonalLoop=1;jettySize=auto;html=1;entryX=0.5;entryY=1;entryDx=0;entryDy=0;endArrow=none;startFill=0;" edge="1" parent="1" source="KM89pwE54j6eWPWr3_YM-20" target="KM89pwE54j6eWPWr3_YM-26">
          <mxGeometry relative="1" as="geometry" />
        </mxCell>
        <mxCell id="KM89pwE54j6eWPWr3_YM-20" value="" style="rhombus;whiteSpace=wrap;html=1;" parent="1" vertex="1">
          <mxGeometry x="250" y="390" width="80" height="80" as="geometry" />
        </mxCell>
        <mxCell id="KM89pwE54j6eWPWr3_YM-21" value="" style="endArrow=none;html=1;rounded=0;exitX=1;exitY=0.5;exitDx=0;exitDy=0;entryX=0;entryY=0.5;entryDx=0;entryDy=0;" parent="1" source="KM89pwE54j6eWPWr3_YM-9" target="KM89pwE54j6eWPWr3_YM-20" edge="1">
          <mxGeometry width="50" height="50" relative="1" as="geometry">
            <mxPoint x="230" y="510" as="sourcePoint" />
            <mxPoint x="330" y="480" as="targetPoint" />
          </mxGeometry>
        </mxCell>
        <mxCell id="RthCbK91_F8tJ_3ahLFB-35" style="edgeStyle=orthogonalEdgeStyle;rounded=0;orthogonalLoop=1;jettySize=auto;html=1;endArrow=none;endFill=1;startFill=0;" parent="1" source="KM89pwE54j6eWPWr3_YM-23" target="RthCbK91_F8tJ_3ahLFB-6" edge="1">
          <mxGeometry relative="1" as="geometry" />
        </mxCell>
        <mxCell id="RthCbK91_F8tJ_3ahLFB-36" style="edgeStyle=orthogonalEdgeStyle;rounded=0;orthogonalLoop=1;jettySize=auto;html=1;endArrow=none;startFill=0;" parent="1" source="KM89pwE54j6eWPWr3_YM-23" target="RthCbK91_F8tJ_3ahLFB-5" edge="1">
          <mxGeometry relative="1" as="geometry">
            <Array as="points">
              <mxPoint x="510" y="510" />
            </Array>
          </mxGeometry>
        </mxCell>
        <mxCell id="fI8FuP6cAWkPeZ9nkoHx-1" style="edgeStyle=orthogonalEdgeStyle;rounded=0;orthogonalLoop=1;jettySize=auto;html=1;entryX=0;entryY=0.5;entryDx=0;entryDy=0;" edge="1" parent="1" source="KM89pwE54j6eWPWr3_YM-23" target="GqbfyCoOcC2KNz3jLCVC-32">
          <mxGeometry relative="1" as="geometry">
            <Array as="points">
              <mxPoint x="480" y="630" />
            </Array>
          </mxGeometry>
        </mxCell>
        <mxCell id="KM89pwE54j6eWPWr3_YM-23" value="ELEGIR DOBLE FACTOR DE AUTENTICACIÓN" style="ellipse;whiteSpace=wrap;html=1;" parent="1" vertex="1">
          <mxGeometry x="420" y="390" width="120" height="80" as="geometry" />
        </mxCell>
        <mxCell id="GqbfyCoOcC2KNz3jLCVC-3" value="SI" style="edgeStyle=orthogonalEdgeStyle;rounded=0;orthogonalLoop=1;jettySize=auto;html=1;entryX=1;entryY=0.25;entryDx=0;entryDy=0;" edge="1" parent="1" source="KM89pwE54j6eWPWr3_YM-26" target="vRh6OYR6chhi0RHXxBmz-3">
          <mxGeometry x="0.2821" y="-5" relative="1" as="geometry">
            <Array as="points">
              <mxPoint x="290" y="185" />
            </Array>
            <mxPoint as="offset" />
          </mxGeometry>
        </mxCell>
        <mxCell id="KM89pwE54j6eWPWr3_YM-26" value="ANES DE 3 INTENTOS" style="ellipse;whiteSpace=wrap;html=1;" parent="1" vertex="1">
          <mxGeometry x="245" y="280" width="90" height="60" as="geometry" />
        </mxCell>
        <mxCell id="5MV8AKmwj1LYdUBuBQUa-1" value="Diagrama de actividad" style="text;html=1;align=center;verticalAlign=middle;resizable=0;points=[];autosize=1;strokeColor=none;fillColor=none;" parent="1" vertex="1">
          <mxGeometry y="-2" width="140" height="30" as="geometry" />
        </mxCell>
        <mxCell id="RthCbK91_F8tJ_3ahLFB-37" style="edgeStyle=orthogonalEdgeStyle;rounded=0;orthogonalLoop=1;jettySize=auto;html=1;" parent="1" source="RthCbK91_F8tJ_3ahLFB-5" target="RthCbK91_F8tJ_3ahLFB-16" edge="1">
          <mxGeometry relative="1" as="geometry" />
        </mxCell>
        <mxCell id="RthCbK91_F8tJ_3ahLFB-5" value="AUTENTICAR POR EMAIL" style="rounded=1;whiteSpace=wrap;html=1;" parent="1" vertex="1">
          <mxGeometry x="630" y="480" width="120" height="60" as="geometry" />
        </mxCell>
        <mxCell id="RthCbK91_F8tJ_3ahLFB-6" value="AUTENTICAR POR SMS" style="rounded=1;whiteSpace=wrap;html=1;" parent="1" vertex="1">
          <mxGeometry x="630" y="400" width="120" height="60" as="geometry" />
        </mxCell>
        <mxCell id="RthCbK91_F8tJ_3ahLFB-20" style="edgeStyle=orthogonalEdgeStyle;rounded=0;orthogonalLoop=1;jettySize=auto;html=1;endArrow=none;startFill=0;" parent="1" source="RthCbK91_F8tJ_3ahLFB-11" target="RthCbK91_F8tJ_3ahLFB-19" edge="1">
          <mxGeometry relative="1" as="geometry" />
        </mxCell>
        <mxCell id="RthCbK91_F8tJ_3ahLFB-11" value="ANTES DE 30 SEGUNDOS" style="ellipse;whiteSpace=wrap;html=1;" parent="1" vertex="1">
          <mxGeometry x="1090" y="260" width="90" height="60" as="geometry" />
        </mxCell>
        <mxCell id="RthCbK91_F8tJ_3ahLFB-43" style="edgeStyle=orthogonalEdgeStyle;rounded=0;orthogonalLoop=1;jettySize=auto;html=1;entryX=0.5;entryY=0;entryDx=0;entryDy=0;endArrow=none;startFill=0;" parent="1" source="RthCbK91_F8tJ_3ahLFB-12" target="RthCbK91_F8tJ_3ahLFB-41" edge="1">
          <mxGeometry relative="1" as="geometry" />
        </mxCell>
        <mxCell id="RthCbK91_F8tJ_3ahLFB-12" value="RECIBIR CÓDIGO" style="rounded=1;whiteSpace=wrap;html=1;" parent="1" vertex="1">
          <mxGeometry x="970" y="400" width="120" height="60" as="geometry" />
        </mxCell>
        <mxCell id="RthCbK91_F8tJ_3ahLFB-21" value="NO" style="edgeStyle=orthogonalEdgeStyle;rounded=0;orthogonalLoop=1;jettySize=auto;html=1;exitX=0;exitY=0.5;exitDx=0;exitDy=0;" parent="1" source="RthCbK91_F8tJ_3ahLFB-19" edge="1">
          <mxGeometry relative="1" as="geometry">
            <mxPoint x="470" y="30" as="targetPoint" />
            <Array as="points">
              <mxPoint x="713" y="180" />
              <mxPoint x="713" y="30" />
            </Array>
          </mxGeometry>
        </mxCell>
        <mxCell id="RthCbK91_F8tJ_3ahLFB-52" value="SI" style="edgeStyle=orthogonalEdgeStyle;rounded=0;orthogonalLoop=1;jettySize=auto;html=1;entryX=0;entryY=0.5;entryDx=0;entryDy=0;" parent="1" source="RthCbK91_F8tJ_3ahLFB-19" target="RthCbK91_F8tJ_3ahLFB-23" edge="1">
          <mxGeometry relative="1" as="geometry" />
        </mxCell>
        <mxCell id="RthCbK91_F8tJ_3ahLFB-19" value="" style="rhombus;whiteSpace=wrap;html=1;" parent="1" vertex="1">
          <mxGeometry x="1095" y="140" width="80" height="80" as="geometry" />
        </mxCell>
        <mxCell id="RthCbK91_F8tJ_3ahLFB-31" style="edgeStyle=orthogonalEdgeStyle;rounded=0;orthogonalLoop=1;jettySize=auto;html=1;endArrow=none;startFill=0;" parent="1" source="RthCbK91_F8tJ_3ahLFB-23" target="RthCbK91_F8tJ_3ahLFB-30" edge="1">
          <mxGeometry relative="1" as="geometry" />
        </mxCell>
        <mxCell id="RthCbK91_F8tJ_3ahLFB-23" value="HASTA EL INTENTO 3" style="ellipse;whiteSpace=wrap;html=1;" parent="1" vertex="1">
          <mxGeometry x="1295" y="150" width="90" height="60" as="geometry" />
        </mxCell>
        <mxCell id="RthCbK91_F8tJ_3ahLFB-51" style="edgeStyle=orthogonalEdgeStyle;rounded=0;orthogonalLoop=1;jettySize=auto;html=1;entryX=0.5;entryY=1;entryDx=0;entryDy=0;endArrow=none;startFill=0;" parent="1" source="RthCbK91_F8tJ_3ahLFB-26" target="RthCbK91_F8tJ_3ahLFB-11" edge="1">
          <mxGeometry relative="1" as="geometry" />
        </mxCell>
        <mxCell id="RthCbK91_F8tJ_3ahLFB-26" value="ESCRIBIR CÓDIGO" style="rounded=1;whiteSpace=wrap;html=1;" parent="1" vertex="1">
          <mxGeometry x="1280" y="320" width="120" height="60" as="geometry" />
        </mxCell>
        <mxCell id="RthCbK91_F8tJ_3ahLFB-32" value="ÉXITO" style="edgeStyle=orthogonalEdgeStyle;rounded=0;orthogonalLoop=1;jettySize=auto;html=1;" parent="1" source="RthCbK91_F8tJ_3ahLFB-30" target="RthCbK91_F8tJ_3ahLFB-53" edge="1">
          <mxGeometry relative="1" as="geometry">
            <mxPoint x="1500" y="79.99999999999977" as="targetPoint" />
          </mxGeometry>
        </mxCell>
        <mxCell id="RthCbK91_F8tJ_3ahLFB-33" value="FALLIDO" style="edgeStyle=orthogonalEdgeStyle;rounded=0;orthogonalLoop=1;jettySize=auto;html=1;" parent="1" source="RthCbK91_F8tJ_3ahLFB-30" target="KM89pwE54j6eWPWr3_YM-19" edge="1">
          <mxGeometry relative="1" as="geometry">
            <Array as="points">
              <mxPoint x="1340" y="-10" />
            </Array>
          </mxGeometry>
        </mxCell>
        <mxCell id="RthCbK91_F8tJ_3ahLFB-30" value="" style="rhombus;whiteSpace=wrap;html=1;" parent="1" vertex="1">
          <mxGeometry x="1300" y="40" width="80" height="80" as="geometry" />
        </mxCell>
        <mxCell id="RthCbK91_F8tJ_3ahLFB-38" value="" style="edgeStyle=orthogonalEdgeStyle;rounded=0;orthogonalLoop=1;jettySize=auto;html=1;" parent="1" source="RthCbK91_F8tJ_3ahLFB-6" target="RthCbK91_F8tJ_3ahLFB-16" edge="1">
          <mxGeometry relative="1" as="geometry">
            <mxPoint x="750" y="430" as="sourcePoint" />
            <mxPoint x="1120" y="430" as="targetPoint" />
          </mxGeometry>
        </mxCell>
        <mxCell id="RthCbK91_F8tJ_3ahLFB-49" style="edgeStyle=orthogonalEdgeStyle;rounded=0;orthogonalLoop=1;jettySize=auto;html=1;entryX=0;entryY=0.5;entryDx=0;entryDy=0;endArrow=none;startFill=0;" parent="1" source="RthCbK91_F8tJ_3ahLFB-16" target="RthCbK91_F8tJ_3ahLFB-12" edge="1">
          <mxGeometry relative="1" as="geometry" />
        </mxCell>
        <mxCell id="RthCbK91_F8tJ_3ahLFB-16" value="DOBLE FACTOR DE AUTENTICACIÓN ELEGIDO" style="rounded=1;whiteSpace=wrap;html=1;" parent="1" vertex="1">
          <mxGeometry x="810" y="400" width="120" height="60" as="geometry" />
        </mxCell>
        <mxCell id="RthCbK91_F8tJ_3ahLFB-44" style="edgeStyle=orthogonalEdgeStyle;rounded=0;orthogonalLoop=1;jettySize=auto;html=1;" parent="1" source="RthCbK91_F8tJ_3ahLFB-41" target="RthCbK91_F8tJ_3ahLFB-42" edge="1">
          <mxGeometry relative="1" as="geometry" />
        </mxCell>
        <mxCell id="RthCbK91_F8tJ_3ahLFB-41" value="RECIBIÓ EL CÓDIGO" style="ellipse;whiteSpace=wrap;html=1;" parent="1" vertex="1">
          <mxGeometry x="985" y="500" width="90" height="60" as="geometry" />
        </mxCell>
        <mxCell id="RthCbK91_F8tJ_3ahLFB-45" value="SI" style="edgeStyle=orthogonalEdgeStyle;rounded=0;orthogonalLoop=1;jettySize=auto;html=1;entryX=0.5;entryY=1;entryDx=0;entryDy=0;endArrow=none;startFill=0;" parent="1" source="RthCbK91_F8tJ_3ahLFB-42" target="RthCbK91_F8tJ_3ahLFB-26" edge="1">
          <mxGeometry relative="1" as="geometry" />
        </mxCell>
        <mxCell id="RthCbK91_F8tJ_3ahLFB-50" value="NO" style="edgeStyle=orthogonalEdgeStyle;rounded=0;orthogonalLoop=1;jettySize=auto;html=1;" parent="1" source="RthCbK91_F8tJ_3ahLFB-42" target="RthCbK91_F8tJ_3ahLFB-12" edge="1">
          <mxGeometry relative="1" as="geometry">
            <Array as="points">
              <mxPoint x="1170" y="430" />
            </Array>
          </mxGeometry>
        </mxCell>
        <mxCell id="RthCbK91_F8tJ_3ahLFB-42" value="" style="rhombus;whiteSpace=wrap;html=1;" parent="1" vertex="1">
          <mxGeometry x="1130" y="490" width="80" height="80" as="geometry" />
        </mxCell>
        <mxCell id="GqbfyCoOcC2KNz3jLCVC-7" style="edgeStyle=orthogonalEdgeStyle;rounded=0;orthogonalLoop=1;jettySize=auto;html=1;" edge="1" parent="1" source="RthCbK91_F8tJ_3ahLFB-53" target="GqbfyCoOcC2KNz3jLCVC-6">
          <mxGeometry relative="1" as="geometry" />
        </mxCell>
        <mxCell id="RthCbK91_F8tJ_3ahLFB-53" value="ACCESO" style="ellipse;whiteSpace=wrap;html=1;" parent="1" vertex="1">
          <mxGeometry x="1510" y="35" width="90" height="90" as="geometry" />
        </mxCell>
        <mxCell id="vRh6OYR6chhi0RHXxBmz-3" value="INGRESAR CREDENCIALES" style="rounded=1;whiteSpace=wrap;html=1;" parent="1" vertex="1">
          <mxGeometry x="70" y="170" width="120" height="60" as="geometry" />
        </mxCell>
        <mxCell id="GqbfyCoOcC2KNz3jLCVC-9" style="edgeStyle=orthogonalEdgeStyle;rounded=0;orthogonalLoop=1;jettySize=auto;html=1;entryX=0;entryY=0.5;entryDx=0;entryDy=0;" edge="1" parent="1" source="GqbfyCoOcC2KNz3jLCVC-6" target="GqbfyCoOcC2KNz3jLCVC-8">
          <mxGeometry relative="1" as="geometry" />
        </mxCell>
        <mxCell id="GqbfyCoOcC2KNz3jLCVC-6" value="CREDENCIALES TIENE MAS DE 6 MESES" style="rounded=1;whiteSpace=wrap;html=1;" vertex="1" parent="1">
          <mxGeometry x="1654" y="50" width="120" height="60" as="geometry" />
        </mxCell>
        <mxCell id="GqbfyCoOcC2KNz3jLCVC-10" value="NO" style="edgeStyle=orthogonalEdgeStyle;rounded=0;orthogonalLoop=1;jettySize=auto;html=1;" edge="1" parent="1" source="GqbfyCoOcC2KNz3jLCVC-8" target="RthCbK91_F8tJ_3ahLFB-53">
          <mxGeometry relative="1" as="geometry">
            <Array as="points">
              <mxPoint x="1880" y="-30" />
              <mxPoint x="1580" y="-30" />
            </Array>
          </mxGeometry>
        </mxCell>
        <mxCell id="GqbfyCoOcC2KNz3jLCVC-12" value="SI" style="edgeStyle=orthogonalEdgeStyle;rounded=0;orthogonalLoop=1;jettySize=auto;html=1;entryX=0.5;entryY=0;entryDx=0;entryDy=0;" edge="1" parent="1" source="GqbfyCoOcC2KNz3jLCVC-8" target="GqbfyCoOcC2KNz3jLCVC-11">
          <mxGeometry relative="1" as="geometry" />
        </mxCell>
        <mxCell id="GqbfyCoOcC2KNz3jLCVC-8" value="" style="rhombus;whiteSpace=wrap;html=1;" vertex="1" parent="1">
          <mxGeometry x="1840" y="40" width="80" height="80" as="geometry" />
        </mxCell>
        <mxCell id="GqbfyCoOcC2KNz3jLCVC-16" style="edgeStyle=orthogonalEdgeStyle;rounded=0;orthogonalLoop=1;jettySize=auto;html=1;" edge="1" parent="1" source="GqbfyCoOcC2KNz3jLCVC-11" target="GqbfyCoOcC2KNz3jLCVC-15">
          <mxGeometry relative="1" as="geometry" />
        </mxCell>
        <mxCell id="GqbfyCoOcC2KNz3jLCVC-11" value="CAMBIAR CREDENCIALES" style="rounded=1;whiteSpace=wrap;html=1;" vertex="1" parent="1">
          <mxGeometry x="1820" y="170" width="120" height="60" as="geometry" />
        </mxCell>
        <mxCell id="GqbfyCoOcC2KNz3jLCVC-18" style="edgeStyle=orthogonalEdgeStyle;rounded=0;orthogonalLoop=1;jettySize=auto;html=1;entryX=0.5;entryY=0;entryDx=0;entryDy=0;" edge="1" parent="1" source="GqbfyCoOcC2KNz3jLCVC-13" target="GqbfyCoOcC2KNz3jLCVC-14">
          <mxGeometry relative="1" as="geometry" />
        </mxCell>
        <mxCell id="GqbfyCoOcC2KNz3jLCVC-13" value="" style="rhombus;whiteSpace=wrap;html=1;" vertex="1" parent="1">
          <mxGeometry x="1840" y="385" width="80" height="80" as="geometry" />
        </mxCell>
        <mxCell id="GqbfyCoOcC2KNz3jLCVC-14" value="VALIDA&lt;div&gt;CREDENCIALES&lt;/div&gt;" style="rounded=1;whiteSpace=wrap;html=1;" vertex="1" parent="1">
          <mxGeometry x="1820" y="515" width="120" height="60" as="geometry" />
        </mxCell>
        <mxCell id="GqbfyCoOcC2KNz3jLCVC-17" style="edgeStyle=orthogonalEdgeStyle;rounded=0;orthogonalLoop=1;jettySize=auto;html=1;entryX=0.5;entryY=0;entryDx=0;entryDy=0;" edge="1" parent="1" source="GqbfyCoOcC2KNz3jLCVC-15" target="GqbfyCoOcC2KNz3jLCVC-13">
          <mxGeometry relative="1" as="geometry" />
        </mxCell>
        <mxCell id="GqbfyCoOcC2KNz3jLCVC-15" value="INGRESAR CREDENCIALES" style="rounded=1;whiteSpace=wrap;html=1;" vertex="1" parent="1">
          <mxGeometry x="1820" y="285" width="120" height="60" as="geometry" />
        </mxCell>
        <mxCell id="GqbfyCoOcC2KNz3jLCVC-19" style="edgeStyle=orthogonalEdgeStyle;rounded=0;orthogonalLoop=1;jettySize=auto;html=1;" edge="1" parent="1" source="GqbfyCoOcC2KNz3jLCVC-13">
          <mxGeometry relative="1" as="geometry">
            <mxPoint x="1940" y="330" as="targetPoint" />
            <Array as="points">
              <mxPoint x="1960" y="425" />
              <mxPoint x="1960" y="330" />
              <mxPoint x="1939" y="330" />
            </Array>
          </mxGeometry>
        </mxCell>
        <mxCell id="GqbfyCoOcC2KNz3jLCVC-22" value="NO" style="edgeStyle=orthogonalEdgeStyle;rounded=0;orthogonalLoop=1;jettySize=auto;html=1;" edge="1" parent="1" source="GqbfyCoOcC2KNz3jLCVC-20">
          <mxGeometry relative="1" as="geometry">
            <mxPoint x="1940" y="315" as="targetPoint" />
            <Array as="points">
              <mxPoint x="2060" y="315" />
              <mxPoint x="1940" y="315" />
            </Array>
          </mxGeometry>
        </mxCell>
        <mxCell id="GqbfyCoOcC2KNz3jLCVC-24" value="SI" style="edgeStyle=orthogonalEdgeStyle;rounded=0;orthogonalLoop=1;jettySize=auto;html=1;entryX=0;entryY=0.5;entryDx=0;entryDy=0;" edge="1" parent="1" source="GqbfyCoOcC2KNz3jLCVC-20" target="GqbfyCoOcC2KNz3jLCVC-23">
          <mxGeometry relative="1" as="geometry" />
        </mxCell>
        <mxCell id="GqbfyCoOcC2KNz3jLCVC-20" value="" style="rhombus;whiteSpace=wrap;html=1;" vertex="1" parent="1">
          <mxGeometry x="2020" y="505" width="80" height="80" as="geometry" />
        </mxCell>
        <mxCell id="GqbfyCoOcC2KNz3jLCVC-21" style="edgeStyle=orthogonalEdgeStyle;rounded=0;orthogonalLoop=1;jettySize=auto;html=1;entryX=0.058;entryY=0.494;entryDx=0;entryDy=0;entryPerimeter=0;endArrow=none;startFill=0;" edge="1" parent="1" source="GqbfyCoOcC2KNz3jLCVC-14" target="GqbfyCoOcC2KNz3jLCVC-20">
          <mxGeometry relative="1" as="geometry" />
        </mxCell>
        <mxCell id="GqbfyCoOcC2KNz3jLCVC-26" style="edgeStyle=orthogonalEdgeStyle;rounded=0;orthogonalLoop=1;jettySize=auto;html=1;entryX=0.5;entryY=1;entryDx=0;entryDy=0;endArrow=none;startFill=0;" edge="1" parent="1" source="GqbfyCoOcC2KNz3jLCVC-23" target="GqbfyCoOcC2KNz3jLCVC-25">
          <mxGeometry relative="1" as="geometry" />
        </mxCell>
        <mxCell id="GqbfyCoOcC2KNz3jLCVC-23" value="CREDENCIALES NUEVAS SON IGUALES A LAS ANTERIORES" style="rounded=1;whiteSpace=wrap;html=1;" vertex="1" parent="1">
          <mxGeometry x="2180" y="515" width="120" height="60" as="geometry" />
        </mxCell>
        <mxCell id="GqbfyCoOcC2KNz3jLCVC-27" value="SI" style="edgeStyle=orthogonalEdgeStyle;rounded=0;orthogonalLoop=1;jettySize=auto;html=1;entryX=1;entryY=0.25;entryDx=0;entryDy=0;" edge="1" parent="1" source="GqbfyCoOcC2KNz3jLCVC-25" target="GqbfyCoOcC2KNz3jLCVC-15">
          <mxGeometry relative="1" as="geometry">
            <Array as="points">
              <mxPoint x="2240" y="300" />
            </Array>
          </mxGeometry>
        </mxCell>
        <mxCell id="GqbfyCoOcC2KNz3jLCVC-29" value="NO" style="edgeStyle=orthogonalEdgeStyle;rounded=0;orthogonalLoop=1;jettySize=auto;html=1;entryX=0.5;entryY=1;entryDx=0;entryDy=0;" edge="1" parent="1" source="GqbfyCoOcC2KNz3jLCVC-25" target="GqbfyCoOcC2KNz3jLCVC-28">
          <mxGeometry relative="1" as="geometry">
            <Array as="points">
              <mxPoint x="2330" y="425" />
            </Array>
          </mxGeometry>
        </mxCell>
        <mxCell id="GqbfyCoOcC2KNz3jLCVC-25" value="" style="rhombus;whiteSpace=wrap;html=1;" vertex="1" parent="1">
          <mxGeometry x="2200" y="385" width="80" height="80" as="geometry" />
        </mxCell>
        <mxCell id="GqbfyCoOcC2KNz3jLCVC-31" style="edgeStyle=orthogonalEdgeStyle;rounded=0;orthogonalLoop=1;jettySize=auto;html=1;" edge="1" parent="1" source="GqbfyCoOcC2KNz3jLCVC-28" target="RthCbK91_F8tJ_3ahLFB-53">
          <mxGeometry relative="1" as="geometry">
            <Array as="points">
              <mxPoint x="2330" y="-90" />
              <mxPoint x="1555" y="-90" />
            </Array>
          </mxGeometry>
        </mxCell>
        <mxCell id="GqbfyCoOcC2KNz3jLCVC-28" value="CREDENCIALES ACTUALIZADAS" style="ellipse;whiteSpace=wrap;html=1;" vertex="1" parent="1">
          <mxGeometry x="2270" y="90" width="120" height="110" as="geometry" />
        </mxCell>
        <mxCell id="NtNzrsHjejXULkN_64DH-4" style="edgeStyle=orthogonalEdgeStyle;rounded=0;orthogonalLoop=1;jettySize=auto;html=1;entryX=0;entryY=0.5;entryDx=0;entryDy=0;" edge="1" parent="1" source="GqbfyCoOcC2KNz3jLCVC-32" target="NtNzrsHjejXULkN_64DH-2">
          <mxGeometry relative="1" as="geometry" />
        </mxCell>
        <mxCell id="NtNzrsHjejXULkN_64DH-12" style="edgeStyle=orthogonalEdgeStyle;rounded=0;orthogonalLoop=1;jettySize=auto;html=1;entryX=0;entryY=0.5;entryDx=0;entryDy=0;" edge="1" parent="1" source="GqbfyCoOcC2KNz3jLCVC-32" target="NtNzrsHjejXULkN_64DH-7">
          <mxGeometry relative="1" as="geometry">
            <Array as="points">
              <mxPoint x="690" y="730" />
            </Array>
          </mxGeometry>
        </mxCell>
        <mxCell id="GqbfyCoOcC2KNz3jLCVC-32" value="ELEGIR AUTENTICACIÓN POR TOKEN" style="rounded=1;whiteSpace=wrap;html=1;" vertex="1" parent="1">
          <mxGeometry x="630" y="600" width="120" height="60" as="geometry" />
        </mxCell>
        <mxCell id="NtNzrsHjejXULkN_64DH-6" style="edgeStyle=orthogonalEdgeStyle;rounded=0;orthogonalLoop=1;jettySize=auto;html=1;entryX=0.75;entryY=1;entryDx=0;entryDy=0;" edge="1" parent="1" source="NtNzrsHjejXULkN_64DH-2" target="RthCbK91_F8tJ_3ahLFB-16">
          <mxGeometry relative="1" as="geometry" />
        </mxCell>
        <mxCell id="NtNzrsHjejXULkN_64DH-2" value="TIPO: GENERADOR DE CLAVE" style="rounded=1;whiteSpace=wrap;html=1;" vertex="1" parent="1">
          <mxGeometry x="800" y="600" width="120" height="60" as="geometry" />
        </mxCell>
        <mxCell id="NtNzrsHjejXULkN_64DH-10" style="edgeStyle=orthogonalEdgeStyle;rounded=0;orthogonalLoop=1;jettySize=auto;html=1;endArrow=none;startFill=0;" edge="1" parent="1" source="NtNzrsHjejXULkN_64DH-7" target="NtNzrsHjejXULkN_64DH-9">
          <mxGeometry relative="1" as="geometry" />
        </mxCell>
        <mxCell id="NtNzrsHjejXULkN_64DH-7" value="TIPO: HUELLA DACTILAR" style="rounded=1;whiteSpace=wrap;html=1;" vertex="1" parent="1">
          <mxGeometry x="800" y="700" width="120" height="60" as="geometry" />
        </mxCell>
        <mxCell id="NtNzrsHjejXULkN_64DH-11" style="edgeStyle=orthogonalEdgeStyle;rounded=0;orthogonalLoop=1;jettySize=auto;html=1;entryX=1;entryY=0.5;entryDx=0;entryDy=0;endArrow=none;startFill=0;" edge="1" parent="1" source="NtNzrsHjejXULkN_64DH-9" target="RthCbK91_F8tJ_3ahLFB-11">
          <mxGeometry relative="1" as="geometry">
            <Array as="points">
              <mxPoint x="1510" y="290" />
            </Array>
          </mxGeometry>
        </mxCell>
        <mxCell id="NtNzrsHjejXULkN_64DH-9" value="INSERTAR HUELLA DACTILAR" style="rounded=1;whiteSpace=wrap;html=1;" vertex="1" parent="1">
          <mxGeometry x="1450" y="320" width="120" height="60" as="geometry" />
        </mxCell>
      </root>
    </mxGraphModel>
  </diagram>
  <diagram id="dBy3LQ48RqHrPlmvTPV_" name="Página-3">
    <mxGraphModel dx="713" dy="1597" grid="1" gridSize="10" guides="1" tooltips="1" connect="1" arrows="1" fold="1" page="1" pageScale="1" pageWidth="827" pageHeight="1169" math="0" shadow="0">
      <root>
        <mxCell id="0" />
        <mxCell id="1" parent="0" />
        <mxCell id="Om0ym_asIvseDUFI5NMe-1" style="edgeStyle=orthogonalEdgeStyle;rounded=0;orthogonalLoop=1;jettySize=auto;html=1;dashed=1;endArrow=block;endFill=1;" parent="1" source="Om0ym_asIvseDUFI5NMe-3" target="Om0ym_asIvseDUFI5NMe-11" edge="1">
          <mxGeometry relative="1" as="geometry" />
        </mxCell>
        <mxCell id="Om0ym_asIvseDUFI5NMe-2" style="edgeStyle=orthogonalEdgeStyle;rounded=0;orthogonalLoop=1;jettySize=auto;html=1;endArrow=block;endFill=1;startArrow=block;startFill=1;" parent="1" source="Om0ym_asIvseDUFI5NMe-3" target="Om0ym_asIvseDUFI5NMe-18" edge="1">
          <mxGeometry relative="1" as="geometry">
            <Array as="points">
              <mxPoint x="320" y="510" />
            </Array>
          </mxGeometry>
        </mxCell>
        <mxCell id="Om0ym_asIvseDUFI5NMe-3" value="Usuario" style="swimlane;fontStyle=1;align=center;verticalAlign=top;childLayout=stackLayout;horizontal=1;startSize=26;horizontalStack=0;resizeParent=1;resizeParentMax=0;resizeLast=0;collapsible=1;marginBottom=0;whiteSpace=wrap;html=1;" parent="1" vertex="1">
          <mxGeometry x="240" y="230" width="160" height="262" as="geometry" />
        </mxCell>
        <mxCell id="Om0ym_asIvseDUFI5NMe-4" value="&lt;div&gt;-usuario:&lt;span style=&quot;background-color: transparent; color: light-dark(rgb(0, 0, 0), rgb(255, 255, 255));&quot;&gt;STRING&lt;/span&gt;&lt;/div&gt;" style="text;strokeColor=none;fillColor=none;align=left;verticalAlign=top;spacingLeft=4;spacingRight=4;overflow=hidden;rotatable=0;points=[[0,0.5],[1,0.5]];portConstraint=eastwest;whiteSpace=wrap;html=1;" parent="Om0ym_asIvseDUFI5NMe-3" vertex="1">
          <mxGeometry y="26" width="160" height="24" as="geometry" />
        </mxCell>
        <mxCell id="Om0ym_asIvseDUFI5NMe-5" value="&lt;div&gt;-contraseña:&lt;span style=&quot;background-color: transparent; color: light-dark(rgb(0, 0, 0), rgb(255, 255, 255));&quot;&gt;STRING&lt;/span&gt;&lt;/div&gt;" style="text;strokeColor=none;fillColor=none;align=left;verticalAlign=top;spacingLeft=4;spacingRight=4;overflow=hidden;rotatable=0;points=[[0,0.5],[1,0.5]];portConstraint=eastwest;whiteSpace=wrap;html=1;" parent="Om0ym_asIvseDUFI5NMe-3" vertex="1">
          <mxGeometry y="50" width="160" height="24" as="geometry" />
        </mxCell>
        <mxCell id="Om0ym_asIvseDUFI5NMe-6" value="&lt;div&gt;-email:&lt;span style=&quot;background-color: transparent; color: light-dark(rgb(0, 0, 0), rgb(255, 255, 255));&quot;&gt;STRING&lt;/span&gt;&lt;/div&gt;" style="text;strokeColor=none;fillColor=none;align=left;verticalAlign=top;spacingLeft=4;spacingRight=4;overflow=hidden;rotatable=0;points=[[0,0.5],[1,0.5]];portConstraint=eastwest;whiteSpace=wrap;html=1;" parent="Om0ym_asIvseDUFI5NMe-3" vertex="1">
          <mxGeometry y="74" width="160" height="24" as="geometry" />
        </mxCell>
        <mxCell id="Om0ym_asIvseDUFI5NMe-7" value="" style="line;strokeWidth=1;fillColor=none;align=left;verticalAlign=middle;spacingTop=-1;spacingLeft=3;spacingRight=3;rotatable=0;labelPosition=right;points=[];portConstraint=eastwest;strokeColor=inherit;" parent="Om0ym_asIvseDUFI5NMe-3" vertex="1">
          <mxGeometry y="98" width="160" height="8" as="geometry" />
        </mxCell>
        <mxCell id="-_xP5axK2PUTW7hZWrWy-25" value="+altaUsuario()" style="text;strokeColor=none;fillColor=none;align=left;verticalAlign=top;spacingLeft=4;spacingRight=4;overflow=hidden;rotatable=0;points=[[0,0.5],[1,0.5]];portConstraint=eastwest;whiteSpace=wrap;html=1;" vertex="1" parent="Om0ym_asIvseDUFI5NMe-3">
          <mxGeometry y="106" width="160" height="26" as="geometry" />
        </mxCell>
        <mxCell id="-_xP5axK2PUTW7hZWrWy-23" value="+modificarPerfil()" style="text;strokeColor=none;fillColor=none;align=left;verticalAlign=top;spacingLeft=4;spacingRight=4;overflow=hidden;rotatable=0;points=[[0,0.5],[1,0.5]];portConstraint=eastwest;whiteSpace=wrap;html=1;" vertex="1" parent="Om0ym_asIvseDUFI5NMe-3">
          <mxGeometry y="132" width="160" height="26" as="geometry" />
        </mxCell>
        <mxCell id="-_xP5axK2PUTW7hZWrWy-24" value="+eliminarUsuario()" style="text;strokeColor=none;fillColor=none;align=left;verticalAlign=top;spacingLeft=4;spacingRight=4;overflow=hidden;rotatable=0;points=[[0,0.5],[1,0.5]];portConstraint=eastwest;whiteSpace=wrap;html=1;" vertex="1" parent="Om0ym_asIvseDUFI5NMe-3">
          <mxGeometry y="158" width="160" height="26" as="geometry" />
        </mxCell>
        <mxCell id="Om0ym_asIvseDUFI5NMe-8" value="+login()" style="text;strokeColor=none;fillColor=none;align=left;verticalAlign=top;spacingLeft=4;spacingRight=4;overflow=hidden;rotatable=0;points=[[0,0.5],[1,0.5]];portConstraint=eastwest;whiteSpace=wrap;html=1;" parent="Om0ym_asIvseDUFI5NMe-3" vertex="1">
          <mxGeometry y="184" width="160" height="26" as="geometry" />
        </mxCell>
        <mxCell id="Om0ym_asIvseDUFI5NMe-9" value="+enviarCodigo()" style="text;strokeColor=none;fillColor=none;align=left;verticalAlign=top;spacingLeft=4;spacingRight=4;overflow=hidden;rotatable=0;points=[[0,0.5],[1,0.5]];portConstraint=eastwest;whiteSpace=wrap;html=1;" parent="Om0ym_asIvseDUFI5NMe-3" vertex="1">
          <mxGeometry y="210" width="160" height="26" as="geometry" />
        </mxCell>
        <mxCell id="Om0ym_asIvseDUFI5NMe-10" value="+verificarCodigo()" style="text;strokeColor=none;fillColor=none;align=left;verticalAlign=top;spacingLeft=4;spacingRight=4;overflow=hidden;rotatable=0;points=[[0,0.5],[1,0.5]];portConstraint=eastwest;whiteSpace=wrap;html=1;" parent="Om0ym_asIvseDUFI5NMe-3" vertex="1">
          <mxGeometry y="236" width="160" height="26" as="geometry" />
        </mxCell>
        <mxCell id="Om0ym_asIvseDUFI5NMe-11" value="Autenticador" style="swimlane;fontStyle=1;align=center;verticalAlign=top;childLayout=stackLayout;horizontal=1;startSize=26;horizontalStack=0;resizeParent=1;resizeParentMax=0;resizeLast=0;collapsible=1;marginBottom=0;whiteSpace=wrap;html=1;" parent="1" vertex="1">
          <mxGeometry x="470" y="230" width="200" height="158" as="geometry" />
        </mxCell>
        <mxCell id="Om0ym_asIvseDUFI5NMe-12" value="&lt;div&gt;-usuario:&lt;span style=&quot;background-color: transparent; color: light-dark(rgb(0, 0, 0), rgb(255, 255, 255));&quot;&gt;STRING&lt;/span&gt;&lt;/div&gt;" style="text;strokeColor=none;fillColor=none;align=left;verticalAlign=top;spacingLeft=4;spacingRight=4;overflow=hidden;rotatable=0;points=[[0,0.5],[1,0.5]];portConstraint=eastwest;whiteSpace=wrap;html=1;" parent="Om0ym_asIvseDUFI5NMe-11" vertex="1">
          <mxGeometry y="26" width="200" height="24" as="geometry" />
        </mxCell>
        <mxCell id="Om0ym_asIvseDUFI5NMe-13" value="&lt;div&gt;-contraseña:&lt;span style=&quot;background-color: transparent; color: light-dark(rgb(0, 0, 0), rgb(255, 255, 255));&quot;&gt;STRING&lt;/span&gt;&lt;/div&gt;" style="text;strokeColor=none;fillColor=none;align=left;verticalAlign=top;spacingLeft=4;spacingRight=4;overflow=hidden;rotatable=0;points=[[0,0.5],[1,0.5]];portConstraint=eastwest;whiteSpace=wrap;html=1;" parent="Om0ym_asIvseDUFI5NMe-11" vertex="1">
          <mxGeometry y="50" width="200" height="24" as="geometry" />
        </mxCell>
        <mxCell id="Om0ym_asIvseDUFI5NMe-14" value="&lt;div&gt;-email:&lt;span style=&quot;background-color: transparent; color: light-dark(rgb(0, 0, 0), rgb(255, 255, 255));&quot;&gt;STRING&lt;/span&gt;&lt;/div&gt;" style="text;strokeColor=none;fillColor=none;align=left;verticalAlign=top;spacingLeft=4;spacingRight=4;overflow=hidden;rotatable=0;points=[[0,0.5],[1,0.5]];portConstraint=eastwest;whiteSpace=wrap;html=1;" parent="Om0ym_asIvseDUFI5NMe-11" vertex="1">
          <mxGeometry y="74" width="200" height="24" as="geometry" />
        </mxCell>
        <mxCell id="Om0ym_asIvseDUFI5NMe-15" value="" style="line;strokeWidth=1;fillColor=none;align=left;verticalAlign=middle;spacingTop=-1;spacingLeft=3;spacingRight=3;rotatable=0;labelPosition=right;points=[];portConstraint=eastwest;strokeColor=inherit;" parent="Om0ym_asIvseDUFI5NMe-11" vertex="1">
          <mxGeometry y="98" width="200" height="8" as="geometry" />
        </mxCell>
        <mxCell id="Om0ym_asIvseDUFI5NMe-16" value="+generarCodigo(): STRING" style="text;strokeColor=none;fillColor=none;align=left;verticalAlign=top;spacingLeft=4;spacingRight=4;overflow=hidden;rotatable=0;points=[[0,0.5],[1,0.5]];portConstraint=eastwest;whiteSpace=wrap;html=1;" parent="Om0ym_asIvseDUFI5NMe-11" vertex="1">
          <mxGeometry y="106" width="200" height="26" as="geometry" />
        </mxCell>
        <mxCell id="Om0ym_asIvseDUFI5NMe-17" value="+validarCodigo(codigo): BOOL" style="text;strokeColor=none;fillColor=none;align=left;verticalAlign=top;spacingLeft=4;spacingRight=4;overflow=hidden;rotatable=0;points=[[0,0.5],[1,0.5]];portConstraint=eastwest;whiteSpace=wrap;html=1;" parent="Om0ym_asIvseDUFI5NMe-11" vertex="1">
          <mxGeometry y="132" width="200" height="26" as="geometry" />
        </mxCell>
        <mxCell id="Om0ym_asIvseDUFI5NMe-18" value="Sesion" style="swimlane;fontStyle=1;align=center;verticalAlign=top;childLayout=stackLayout;horizontal=1;startSize=26;horizontalStack=0;resizeParent=1;resizeParentMax=0;resizeLast=0;collapsible=1;marginBottom=0;whiteSpace=wrap;html=1;" parent="1" vertex="1">
          <mxGeometry x="470" y="450" width="200" height="184" as="geometry" />
        </mxCell>
        <mxCell id="Om0ym_asIvseDUFI5NMe-19" value="&lt;div&gt;-estado:STRING&lt;/div&gt;" style="text;strokeColor=none;fillColor=none;align=left;verticalAlign=top;spacingLeft=4;spacingRight=4;overflow=hidden;rotatable=0;points=[[0,0.5],[1,0.5]];portConstraint=eastwest;whiteSpace=wrap;html=1;" parent="Om0ym_asIvseDUFI5NMe-18" vertex="1">
          <mxGeometry y="26" width="200" height="24" as="geometry" />
        </mxCell>
        <mxCell id="Om0ym_asIvseDUFI5NMe-20" value="&lt;div&gt;-tiempoInicio:DATETIME&lt;/div&gt;" style="text;strokeColor=none;fillColor=none;align=left;verticalAlign=top;spacingLeft=4;spacingRight=4;overflow=hidden;rotatable=0;points=[[0,0.5],[1,0.5]];portConstraint=eastwest;whiteSpace=wrap;html=1;" parent="Om0ym_asIvseDUFI5NMe-18" vertex="1">
          <mxGeometry y="50" width="200" height="24" as="geometry" />
        </mxCell>
        <mxCell id="nBeRDWS93CTNcs1UsvAa-14" value="&lt;div&gt;-tiempoCredenciales:DATETIME&lt;/div&gt;" style="text;strokeColor=none;fillColor=none;align=left;verticalAlign=top;spacingLeft=4;spacingRight=4;overflow=hidden;rotatable=0;points=[[0,0.5],[1,0.5]];portConstraint=eastwest;whiteSpace=wrap;html=1;" parent="Om0ym_asIvseDUFI5NMe-18" vertex="1">
          <mxGeometry y="74" width="200" height="24" as="geometry" />
        </mxCell>
        <mxCell id="Om0ym_asIvseDUFI5NMe-21" value="" style="line;strokeWidth=1;fillColor=none;align=left;verticalAlign=middle;spacingTop=-1;spacingLeft=3;spacingRight=3;rotatable=0;labelPosition=right;points=[];portConstraint=eastwest;strokeColor=inherit;" parent="Om0ym_asIvseDUFI5NMe-18" vertex="1">
          <mxGeometry y="98" width="200" height="8" as="geometry" />
        </mxCell>
        <mxCell id="Om0ym_asIvseDUFI5NMe-22" value="+iniciarSesion()" style="text;strokeColor=none;fillColor=none;align=left;verticalAlign=top;spacingLeft=4;spacingRight=4;overflow=hidden;rotatable=0;points=[[0,0.5],[1,0.5]];portConstraint=eastwest;whiteSpace=wrap;html=1;" parent="Om0ym_asIvseDUFI5NMe-18" vertex="1">
          <mxGeometry y="106" width="200" height="26" as="geometry" />
        </mxCell>
        <mxCell id="Om0ym_asIvseDUFI5NMe-23" value="+cerrarSesion()" style="text;strokeColor=none;fillColor=none;align=left;verticalAlign=top;spacingLeft=4;spacingRight=4;overflow=hidden;rotatable=0;points=[[0,0.5],[1,0.5]];portConstraint=eastwest;whiteSpace=wrap;html=1;" parent="Om0ym_asIvseDUFI5NMe-18" vertex="1">
          <mxGeometry y="132" width="200" height="26" as="geometry" />
        </mxCell>
        <mxCell id="nBeRDWS93CTNcs1UsvAa-15" value="+actualizarCredenciales()" style="text;strokeColor=none;fillColor=none;align=left;verticalAlign=top;spacingLeft=4;spacingRight=4;overflow=hidden;rotatable=0;points=[[0,0.5],[1,0.5]];portConstraint=eastwest;whiteSpace=wrap;html=1;" parent="Om0ym_asIvseDUFI5NMe-18" vertex="1">
          <mxGeometry y="158" width="200" height="26" as="geometry" />
        </mxCell>
        <mxCell id="nBeRDWS93CTNcs1UsvAa-1" value="Token" style="swimlane;fontStyle=1;align=center;verticalAlign=top;childLayout=stackLayout;horizontal=1;startSize=26;horizontalStack=0;resizeParent=1;resizeParentMax=0;resizeLast=0;collapsible=1;marginBottom=0;whiteSpace=wrap;html=1;" parent="1" vertex="1">
          <mxGeometry x="740" y="230" width="200" height="84" as="geometry" />
        </mxCell>
        <mxCell id="nBeRDWS93CTNcs1UsvAa-3" value="&lt;div&gt;-contraseña:&lt;span style=&quot;background-color: transparent; color: light-dark(rgb(0, 0, 0), rgb(255, 255, 255));&quot;&gt;STRING&lt;/span&gt;&lt;/div&gt;" style="text;strokeColor=none;fillColor=none;align=left;verticalAlign=top;spacingLeft=4;spacingRight=4;overflow=hidden;rotatable=0;points=[[0,0.5],[1,0.5]];portConstraint=eastwest;whiteSpace=wrap;html=1;" parent="nBeRDWS93CTNcs1UsvAa-1" vertex="1">
          <mxGeometry y="26" width="200" height="24" as="geometry" />
        </mxCell>
        <mxCell id="nBeRDWS93CTNcs1UsvAa-5" value="" style="line;strokeWidth=1;fillColor=none;align=left;verticalAlign=middle;spacingTop=-1;spacingLeft=3;spacingRight=3;rotatable=0;labelPosition=right;points=[];portConstraint=eastwest;strokeColor=inherit;" parent="nBeRDWS93CTNcs1UsvAa-1" vertex="1">
          <mxGeometry y="50" width="200" height="8" as="geometry" />
        </mxCell>
        <mxCell id="nBeRDWS93CTNcs1UsvAa-6" value="+generarCodigo(): STRING" style="text;strokeColor=none;fillColor=none;align=left;verticalAlign=top;spacingLeft=4;spacingRight=4;overflow=hidden;rotatable=0;points=[[0,0.5],[1,0.5]];portConstraint=eastwest;whiteSpace=wrap;html=1;" parent="nBeRDWS93CTNcs1UsvAa-1" vertex="1">
          <mxGeometry y="58" width="200" height="26" as="geometry" />
        </mxCell>
        <mxCell id="nBeRDWS93CTNcs1UsvAa-8" style="edgeStyle=orthogonalEdgeStyle;rounded=0;orthogonalLoop=1;jettySize=auto;html=1;entryX=1;entryY=0.25;entryDx=0;entryDy=0;entryPerimeter=0;dashed=1;" parent="1" source="nBeRDWS93CTNcs1UsvAa-1" target="Om0ym_asIvseDUFI5NMe-14" edge="1">
          <mxGeometry relative="1" as="geometry" />
        </mxCell>
        <mxCell id="nBeRDWS93CTNcs1UsvAa-13" style="edgeStyle=orthogonalEdgeStyle;rounded=0;orthogonalLoop=1;jettySize=auto;html=1;entryX=1;entryY=0.5;entryDx=0;entryDy=0;dashed=1;" parent="1" source="nBeRDWS93CTNcs1UsvAa-9" target="Om0ym_asIvseDUFI5NMe-16" edge="1">
          <mxGeometry relative="1" as="geometry" />
        </mxCell>
        <mxCell id="nBeRDWS93CTNcs1UsvAa-9" value="Huella dactilar" style="swimlane;fontStyle=1;align=center;verticalAlign=top;childLayout=stackLayout;horizontal=1;startSize=26;horizontalStack=0;resizeParent=1;resizeParentMax=0;resizeLast=0;collapsible=1;marginBottom=0;whiteSpace=wrap;html=1;" parent="1" vertex="1">
          <mxGeometry x="740" y="360" width="200" height="84" as="geometry" />
        </mxCell>
        <mxCell id="nBeRDWS93CTNcs1UsvAa-10" value="&lt;div&gt;-contraseña:&lt;span style=&quot;background-color: transparent; color: light-dark(rgb(0, 0, 0), rgb(255, 255, 255));&quot;&gt;STRING&lt;/span&gt;&lt;/div&gt;" style="text;strokeColor=none;fillColor=none;align=left;verticalAlign=top;spacingLeft=4;spacingRight=4;overflow=hidden;rotatable=0;points=[[0,0.5],[1,0.5]];portConstraint=eastwest;whiteSpace=wrap;html=1;" parent="nBeRDWS93CTNcs1UsvAa-9" vertex="1">
          <mxGeometry y="26" width="200" height="24" as="geometry" />
        </mxCell>
        <mxCell id="nBeRDWS93CTNcs1UsvAa-11" value="" style="line;strokeWidth=1;fillColor=none;align=left;verticalAlign=middle;spacingTop=-1;spacingLeft=3;spacingRight=3;rotatable=0;labelPosition=right;points=[];portConstraint=eastwest;strokeColor=inherit;" parent="nBeRDWS93CTNcs1UsvAa-9" vertex="1">
          <mxGeometry y="50" width="200" height="8" as="geometry" />
        </mxCell>
        <mxCell id="nBeRDWS93CTNcs1UsvAa-12" value="+generarCodigo(): STRING" style="text;strokeColor=none;fillColor=none;align=left;verticalAlign=top;spacingLeft=4;spacingRight=4;overflow=hidden;rotatable=0;points=[[0,0.5],[1,0.5]];portConstraint=eastwest;whiteSpace=wrap;html=1;" parent="nBeRDWS93CTNcs1UsvAa-9" vertex="1">
          <mxGeometry y="58" width="200" height="26" as="geometry" />
        </mxCell>
        <mxCell id="-_xP5axK2PUTW7hZWrWy-11" style="edgeStyle=orthogonalEdgeStyle;rounded=0;orthogonalLoop=1;jettySize=auto;html=1;entryX=0.5;entryY=0;entryDx=0;entryDy=0;startArrow=diamond;startFill=1;endArrow=none;" edge="1" parent="1" source="-_xP5axK2PUTW7hZWrWy-1" target="Om0ym_asIvseDUFI5NMe-3">
          <mxGeometry relative="1" as="geometry" />
        </mxCell>
        <mxCell id="-_xP5axK2PUTW7hZWrWy-1" value="Persona" style="swimlane;fontStyle=1;align=center;verticalAlign=top;childLayout=stackLayout;horizontal=1;startSize=26;horizontalStack=0;resizeParent=1;resizeParentMax=0;resizeLast=0;collapsible=1;marginBottom=0;whiteSpace=wrap;html=1;" vertex="1" parent="1">
          <mxGeometry x="240" y="-30" width="160" height="206" as="geometry" />
        </mxCell>
        <mxCell id="-_xP5axK2PUTW7hZWrWy-2" value="&lt;div&gt;-ci:&lt;span style=&quot;background-color: transparent; color: light-dark(rgb(0, 0, 0), rgb(255, 255, 255));&quot;&gt;STRING&lt;/span&gt;&lt;/div&gt;" style="text;strokeColor=none;fillColor=none;align=left;verticalAlign=top;spacingLeft=4;spacingRight=4;overflow=hidden;rotatable=0;points=[[0,0.5],[1,0.5]];portConstraint=eastwest;whiteSpace=wrap;html=1;" vertex="1" parent="-_xP5axK2PUTW7hZWrWy-1">
          <mxGeometry y="26" width="160" height="24" as="geometry" />
        </mxCell>
        <mxCell id="-_xP5axK2PUTW7hZWrWy-3" value="&lt;div&gt;-nombre:&lt;span style=&quot;background-color: transparent; color: light-dark(rgb(0, 0, 0), rgb(255, 255, 255));&quot;&gt;STRING&lt;/span&gt;&lt;/div&gt;" style="text;strokeColor=none;fillColor=none;align=left;verticalAlign=top;spacingLeft=4;spacingRight=4;overflow=hidden;rotatable=0;points=[[0,0.5],[1,0.5]];portConstraint=eastwest;whiteSpace=wrap;html=1;" vertex="1" parent="-_xP5axK2PUTW7hZWrWy-1">
          <mxGeometry y="50" width="160" height="24" as="geometry" />
        </mxCell>
        <mxCell id="-_xP5axK2PUTW7hZWrWy-9" value="&lt;div&gt;-apellido:&lt;span style=&quot;background-color: transparent; color: light-dark(rgb(0, 0, 0), rgb(255, 255, 255));&quot;&gt;STRING&lt;/span&gt;&lt;/div&gt;" style="text;strokeColor=none;fillColor=none;align=left;verticalAlign=top;spacingLeft=4;spacingRight=4;overflow=hidden;rotatable=0;points=[[0,0.5],[1,0.5]];portConstraint=eastwest;whiteSpace=wrap;html=1;" vertex="1" parent="-_xP5axK2PUTW7hZWrWy-1">
          <mxGeometry y="74" width="160" height="24" as="geometry" />
        </mxCell>
        <mxCell id="-_xP5axK2PUTW7hZWrWy-4" value="&lt;div&gt;-direccion:&lt;span style=&quot;background-color: transparent; color: light-dark(rgb(0, 0, 0), rgb(255, 255, 255));&quot;&gt;STRING&lt;/span&gt;&lt;/div&gt;" style="text;strokeColor=none;fillColor=none;align=left;verticalAlign=top;spacingLeft=4;spacingRight=4;overflow=hidden;rotatable=0;points=[[0,0.5],[1,0.5]];portConstraint=eastwest;whiteSpace=wrap;html=1;" vertex="1" parent="-_xP5axK2PUTW7hZWrWy-1">
          <mxGeometry y="98" width="160" height="24" as="geometry" />
        </mxCell>
        <mxCell id="-_xP5axK2PUTW7hZWrWy-10" value="&lt;div&gt;-celular:&lt;span style=&quot;background-color: transparent; color: light-dark(rgb(0, 0, 0), rgb(255, 255, 255));&quot;&gt;STRING&lt;/span&gt;&lt;/div&gt;" style="text;strokeColor=none;fillColor=none;align=left;verticalAlign=top;spacingLeft=4;spacingRight=4;overflow=hidden;rotatable=0;points=[[0,0.5],[1,0.5]];portConstraint=eastwest;whiteSpace=wrap;html=1;" vertex="1" parent="-_xP5axK2PUTW7hZWrWy-1">
          <mxGeometry y="122" width="160" height="24" as="geometry" />
        </mxCell>
        <mxCell id="-_xP5axK2PUTW7hZWrWy-5" value="" style="line;strokeWidth=1;fillColor=none;align=left;verticalAlign=middle;spacingTop=-1;spacingLeft=3;spacingRight=3;rotatable=0;labelPosition=right;points=[];portConstraint=eastwest;strokeColor=inherit;" vertex="1" parent="-_xP5axK2PUTW7hZWrWy-1">
          <mxGeometry y="146" width="160" height="8" as="geometry" />
        </mxCell>
        <mxCell id="-_xP5axK2PUTW7hZWrWy-12" value="+getter: STRING" style="text;strokeColor=none;fillColor=none;align=left;verticalAlign=top;spacingLeft=4;spacingRight=4;overflow=hidden;rotatable=0;points=[[0,0.5],[1,0.5]];portConstraint=eastwest;whiteSpace=wrap;html=1;" vertex="1" parent="-_xP5axK2PUTW7hZWrWy-1">
          <mxGeometry y="154" width="160" height="26" as="geometry" />
        </mxCell>
        <mxCell id="-_xP5axK2PUTW7hZWrWy-13" value="+setter: VOID" style="text;strokeColor=none;fillColor=none;align=left;verticalAlign=top;spacingLeft=4;spacingRight=4;overflow=hidden;rotatable=0;points=[[0,0.5],[1,0.5]];portConstraint=eastwest;whiteSpace=wrap;html=1;" vertex="1" parent="-_xP5axK2PUTW7hZWrWy-1">
          <mxGeometry y="180" width="160" height="26" as="geometry" />
        </mxCell>
      </root>
    </mxGraphModel>
  </diagram>
</mxfile>
